<svg width="24" height="25" viewBox="0 0 24 25" fill="none" xmlns="http://www.w3.org/2000/svg">
<path d="M20 8.5H4C3.44772 8.5 3 8.94772 3 9.5V11.5C3 12.0523 3.44772 12.5 4 12.5H20C20.5523 12.5 21 12.0523 21 11.5V9.5C21 8.94772 20.5523 8.5 20 8.5Z" stroke="black" stroke-width="2" stroke-linecap="round" stroke-linejoin="round"/>
<path d="M12 8.5V21.5" stroke="black" stroke-width="2" stroke-linecap="round" stroke-linejoin="round"/>
<path d="M19 12.5V19.5C19 20.0304 18.7893 20.5391 18.4142 20.9142C18.0391 21.2893 17.5304 21.5 17 21.5H7C6.46957 21.5 5.96086 21.2893 5.58579 20.9142C5.21071 20.5391 5 20.0304 5 19.5V12.5" stroke="black" stroke-width="2" stroke-linecap="round" stroke-linejoin="round"/>
<path d="M7.5 8.50001C6.83696 8.50001 6.20107 8.23662 5.73223 7.76778C5.26339 7.29894 5 6.66305 5 6.00001C5 5.33697 5.26339 4.70108 5.73223 4.23224C6.20107 3.7634 6.83696 3.50001 7.5 3.50001C8.46469 3.4832 9.41003 3.95127 10.2127 4.84317C11.0154 5.73507 11.6383 7.00941 12 8.50001C12.3617 7.00941 12.9846 5.73507 13.7873 4.84317C14.59 3.95127 15.5353 3.4832 16.5 3.50001C17.163 3.50001 17.7989 3.7634 18.2678 4.23224C18.7366 4.70108 19 5.33697 19 6.00001C19 6.66305 18.7366 7.29894 18.2678 7.76778C17.7989 8.23662 17.163 8.50001 16.5 8.50001" stroke="black" stroke-width="2" stroke-linecap="round" stroke-linejoin="round"/>
</svg>
