<svg width="18" height="20" viewBox="0 0 18 20" fill="none" xmlns="http://www.w3.org/2000/svg">
<path fill-rule="evenodd" clip-rule="evenodd" d="M15.0105 2.53693C13.3507 0.845645 11.3472 0 9.00003 0C6.6528 0 4.64932 0.845645 2.9896 2.53693C1.32987 4.22822 0.5 6.26982 0.5 8.66163C0.5 11.0534 1.32987 13.095 2.9896 14.7864L7.48086 19.363C8.31438 20.2123 9.68568 20.2123 10.5192 19.363L15.0105 14.7864C16.6702 13.095 17.5 11.0534 17.5 8.66163C17.5 6.26982 16.6702 4.22822 15.0105 2.53693ZM9.00003 11.9098C9.20929 11.9098 9.4166 11.8889 9.62185 11.8473C9.82715 11.8057 10.0264 11.7441 10.2198 11.6625C10.4132 11.5809 10.5969 11.4808 10.7709 11.3624C10.9449 11.2438 11.1059 11.1092 11.2539 10.9584C11.3277 10.8832 11.3977 10.8044 11.464 10.7223C11.5302 10.64 11.5923 10.5546 11.6503 10.4662C11.7083 10.3778 11.762 10.2866 11.8112 10.1928C11.8603 10.0989 11.9049 10.0029 11.9449 9.90463C11.9848 9.80632 12.0199 9.70632 12.0502 9.60451C12.0806 9.5027 12.1059 9.39963 12.1263 9.29532C12.1467 9.19094 12.162 9.08588 12.1722 8.98001C12.1824 8.87413 12.1875 8.76801 12.1875 8.66163C12.1875 8.55526 12.1824 8.44913 12.1722 8.34326C12.162 8.23738 12.1467 8.13232 12.1263 8.02794C12.1059 7.92363 12.0806 7.82057 12.0502 7.71876C12.0199 7.61694 11.9848 7.51694 11.9449 7.41863C11.9049 7.32032 11.8603 7.22432 11.8112 7.13051C11.762 7.03669 11.7083 6.94551 11.6503 6.85707C11.5923 6.76863 11.5302 6.68332 11.464 6.60107C11.3977 6.51882 11.3277 6.44007 11.2539 6.36488C11.1059 6.21406 10.9449 6.07941 10.7709 5.96093C10.5969 5.84244 10.4132 5.74239 10.2198 5.66077C10.0264 5.57915 9.82715 5.51754 9.62185 5.47593C9.4166 5.43432 9.20929 5.41352 9.00003 5.41352C8.79071 5.41352 8.58346 5.43432 8.37815 5.47593C8.17291 5.51754 7.97356 5.57915 7.78023 5.66077C7.58684 5.74239 7.40317 5.84244 7.22915 5.96093C7.05514 6.07941 6.8941 6.21406 6.74611 6.36488C6.67229 6.44007 6.60227 6.51882 6.53604 6.60107C6.46981 6.68332 6.4077 6.76863 6.3497 6.85707C6.2917 6.94551 6.2381 7.03669 6.18889 7.13051C6.13967 7.22432 6.09509 7.32038 6.05514 7.41863C6.01519 7.51694 5.98006 7.61694 5.94976 7.71876C5.91946 7.82057 5.89412 7.92363 5.87375 8.02794C5.85338 8.13232 5.83809 8.23738 5.82786 8.34326C5.81763 8.44913 5.81251 8.55526 5.81251 8.66163C5.81251 8.76801 5.81763 8.87413 5.82786 8.98001C5.83809 9.08588 5.85338 9.19094 5.87375 9.29532C5.89412 9.39963 5.91946 9.5027 5.94976 9.60451C5.98006 9.70632 6.01519 9.80638 6.05514 9.90463C6.09509 10.0029 6.13967 10.0989 6.18889 10.1928C6.2381 10.2866 6.2917 10.3778 6.3497 10.4662C6.4077 10.5546 6.46981 10.64 6.53604 10.7223C6.60227 10.8044 6.67229 10.8832 6.74611 10.9584C6.8941 11.1092 7.05514 11.2438 7.22915 11.3624C7.40317 11.4808 7.58684 11.5809 7.78023 11.6625C7.97356 11.7441 8.17291 11.8057 8.37815 11.8473C8.58346 11.8889 8.79071 11.9098 9.00003 11.9098Z" fill="#FF5534"/>
</svg>
