<svg width="28" height="31" viewBox="0 0 28 31" fill="none" xmlns="http://www.w3.org/2000/svg">
<path d="M14 31C12.5263 31 14.2697 28.7233 7.00442 25.1821C6.60639 24.9877 6.22013 24.7711 5.84758 24.5333C2.23263 22.232 0 18.0233 0 13.4929C0 6.04139 6.26758 0 14 0C21.7324 0 28 6.0414 28 13.4915C28 18.4832 25.2825 23.09 21.0074 25.1763C13.7347 28.7219 15.4737 31 14 31ZM14 18.9028C17.1109 18.9028 19.6 16.492 19.6 13.5607C19.6 10.6294 17.1109 8.2186 14 8.2186C10.8891 8.2186 8.4 10.6294 8.4 13.5607C8.4 16.492 10.8891 18.9028 14 18.9028Z" fill="#FF5534"/>
</svg>
