<svg width="24" height="25" viewBox="0 0 24 25" fill="none" xmlns="http://www.w3.org/2000/svg">
<path d="M12 22.5C17.5228 22.5 22 18.0228 22 12.5C22 6.97715 17.5228 2.5 12 2.5C6.47715 2.5 2 6.97715 2 12.5C2 18.0228 6.47715 22.5 12 22.5Z" stroke="black" stroke-width="2" stroke-linecap="round" stroke-linejoin="round"/>
<path d="M12 13.5C13.6569 13.5 15 12.1569 15 10.5C15 8.84315 13.6569 7.5 12 7.5C10.3431 7.5 9 8.84315 9 10.5C9 12.1569 10.3431 13.5 12 13.5Z" stroke="black" stroke-width="2" stroke-linecap="round" stroke-linejoin="round"/>
<path d="M7 21.162V19.5C7 18.9696 7.21071 18.4609 7.58579 18.0858C7.96086 17.7107 8.46957 17.5 9 17.5H15C15.5304 17.5 16.0391 17.7107 16.4142 18.0858C16.7893 18.4609 17 18.9696 17 19.5V21.162" stroke="black" stroke-width="2" stroke-linecap="round" stroke-linejoin="round"/>
</svg>
