<svg width="16" height="15" viewBox="0 0 16 15" fill="none" xmlns="http://www.w3.org/2000/svg">
<g clip-path="url(#clip0_9953_12)">
<path d="M11.1831 9.42422C12.0879 8.26835 12.4932 6.83528 12.3178 5.41171C12.1424 3.98814 11.3993 2.67906 10.2372 1.74635C9.07503 0.813652 7.57954 0.32612 6.0499 0.381295C4.52025 0.436471 3.06927 1.03028 1.98723 2.04394C0.905195 3.05759 0.271904 4.41632 0.214059 5.8483C0.156214 7.28029 0.678079 8.67991 1.67525 9.76717C2.67242 10.8544 4.07135 11.5491 5.59218 11.7123C7.113 11.8754 8.64356 11.495 9.87764 10.6472H9.8767C9.90473 10.6822 9.93464 10.7154 9.96828 10.7478L13.566 14.1157C13.7412 14.2798 13.9789 14.3721 14.2268 14.3722C14.4747 14.3722 14.7124 14.2801 14.8878 14.1161C15.0631 13.9521 15.1617 13.7296 15.1618 13.4975C15.1619 13.2655 15.0635 13.0429 14.8883 12.8787L11.2906 9.51082C11.2571 9.47916 11.2212 9.44992 11.1831 9.42334V9.42422ZM11.4242 6.06155C11.4242 6.69338 11.2912 7.31902 11.033 7.90276C10.7747 8.48649 10.3961 9.01689 9.91883 9.46366C9.44158 9.91043 8.875 10.2648 8.25143 10.5066C7.62787 10.7484 6.95954 10.8729 6.2846 10.8729C5.60966 10.8729 4.94133 10.7484 4.31777 10.5066C3.69421 10.2648 3.12763 9.91043 2.65037 9.46366C2.17312 9.01689 1.79454 8.48649 1.53625 7.90276C1.27796 7.31902 1.14502 6.69338 1.14502 6.06155C1.14502 4.78551 1.68651 3.56173 2.65037 2.65944C3.61423 1.75714 4.9215 1.25024 6.2846 1.25024C7.6477 1.25024 8.95498 1.75714 9.91883 2.65944C10.8827 3.56173 11.4242 4.78551 11.4242 6.06155Z" fill="#1D1D1D"/>
</g>
<defs>
<clipPath id="clip0_9953_12">
<rect width="14.9515" height="13.9965" fill="white" transform="translate(0.209961 0.374756)"/>
</clipPath>
</defs>
</svg>
