<svg width="51" height="51" viewBox="0 0 51 51" fill="none" xmlns="http://www.w3.org/2000/svg">
<path opacity="0.4" d="M15.3 0H35.7C45.9 0 51 5.1 51 15.3V48.45C51 49.8525 49.8525 51 48.45 51H15.3C5.1 51 0 45.9 0 35.7V15.3C0 5.1 5.1 0 15.3 0Z" fill="#FF5534"/>
<path fill-rule="evenodd" clip-rule="evenodd" d="M36.8889 22.1751C36.8889 15.8844 32.0044 11 26 11C19.9956 11 15.1111 15.8844 15.1111 21.8889C13.302 22.8176 12 24.5271 12 26.5556V29.6667C12 30.9043 12.4917 32.0913 13.3668 32.9665C14.242 33.8416 15.429 34.3333 16.6667 34.3333H18.2222C18.6348 34.3333 19.0304 34.1694 19.3222 33.8777C19.6139 33.586 19.7778 33.1903 19.7778 32.7778V23.4444C19.7778 23.0319 19.6139 22.6362 19.3222 22.3445C19.0304 22.0528 18.6348 21.8889 18.2222 21.8889C18.2222 19.8261 19.0417 17.8478 20.5003 16.3892C21.9589 14.9305 23.9372 14.1111 26 14.1111C28.0628 14.1111 30.0411 14.9305 31.4997 16.3892C32.9583 17.8478 33.7778 19.8261 33.7778 21.8889C33.3652 21.8889 32.9696 22.0528 32.6778 22.3445C32.3861 22.6362 32.2222 23.0319 32.2222 23.4444V32.7778C32.2222 33.1903 32.3861 33.586 32.6778 33.8777C32.9696 34.1694 33.3652 34.3333 33.7778 34.3333V35.8889H29.7458C29.4253 34.9851 28.5698 34.3333 27.5556 34.3333H24.4444C23.8256 34.3333 23.2321 34.5792 22.7945 35.0168C22.3569 35.4543 22.1111 36.0478 22.1111 36.6667C22.1111 37.2855 22.3569 37.879 22.7945 38.3166C23.2321 38.7541 23.8256 39 24.4444 39H33.7778C34.6029 39 35.3942 38.6722 35.9777 38.0888C36.5611 37.5053 36.8889 36.714 36.8889 35.8889V34.0487C37.7969 33.7296 38.5836 33.1368 39.1408 32.3521C39.698 31.5673 39.9981 30.6291 40 29.6667V26.5556C39.9983 25.5933 39.6981 24.6552 39.1409 23.8707C38.5837 23.0861 37.7969 22.4937 36.8889 22.1751L36.8889 26.5555L36.8889 22.1751Z" fill="#FF5534"/>
</svg>
