<svg width="16" height="17" viewBox="0 0 16 17" fill="none" xmlns="http://www.w3.org/2000/svg">
<path d="M7.60547 0.75C11.4112 0.750108 14.4609 3.74653 14.4609 7.39844C14.4609 9.80065 13.2048 11.9873 11.2695 13.0361L11.0801 13.1338C9.02773 14.1439 8.15068 15.0212 7.69629 15.7266C7.66271 15.7787 7.63355 15.8298 7.60547 15.8779C7.57763 15.8302 7.54888 15.7793 7.51562 15.7275C7.06219 15.0221 6.18656 14.1458 4.13574 13.1367H4.13672C3.94617 13.0428 3.76128 12.9381 3.58301 12.8232H3.58203C1.84854 11.7093 0.750021 9.64754 0.75 7.39941C0.75 3.74655 3.79967 0.75 7.60547 0.75ZM7.60547 3.75684C5.52481 3.75684 3.81348 5.39168 3.81348 7.43652C3.81348 9.48136 5.52481 11.1162 7.60547 11.1162C9.68603 11.1161 11.3975 9.48129 11.3975 7.43652C11.3975 5.39175 9.68603 3.75694 7.60547 3.75684Z" stroke="#FF5534" stroke-width="1.5"/>
</svg>
