<svg width="11" height="12" viewBox="0 0 11 12" fill="none" xmlns="http://www.w3.org/2000/svg">
<path fill-rule="evenodd" clip-rule="evenodd" d="M0.230469 6.13065C0.230469 3.18388 2.6193 0.795044 5.56608 0.795044C8.51283 0.795044 10.9017 3.18388 10.9017 6.13065C10.9017 9.0774 8.51283 11.4663 5.56608 11.4663C2.6193 11.4663 0.230469 9.0774 0.230469 6.13065ZM7.61074 7.49374C7.44725 7.73891 7.11597 7.80518 6.87079 7.64175L5.48343 6.71682C5.20171 6.52901 5.03252 6.21287 5.03252 5.87433V5.86387V3.46285C5.03252 3.16817 5.27139 2.92929 5.56608 2.92929C5.86076 2.92929 6.09964 3.16817 6.09964 3.46285V5.84509L7.46273 6.7538C7.7079 6.91728 7.77417 7.24857 7.61074 7.49374Z" fill="#FF5534"/>
</svg>
