<svg width="17" height="17" viewBox="0 0 17 17" fill="none" xmlns="http://www.w3.org/2000/svg">
<g clip-path="url(#clip0_9646_12024)">
<path d="M5.84374 12.75L3.71874 14.3438V11.1563H1.59375C1.31195 11.1563 1.0417 11.0443 0.84245 10.845C0.643191 10.6458 0.53125 10.3755 0.53125 10.0938V1.59375C0.53125 1.31195 0.643191 1.0417 0.84245 0.84245C1.0417 0.643191 1.31195 0.53125 1.59375 0.53125H13.2813C13.563 0.53125 13.8333 0.643191 14.0325 0.84245C14.2318 1.0417 14.3438 1.31195 14.3438 1.59375V4.75635" stroke="#FF5534" stroke-width="1.5" stroke-linecap="round" stroke-linejoin="round"/>
<path d="M3.71875 3.71875H11.1563" stroke="#FF5534" stroke-width="1.5" stroke-linecap="round" stroke-linejoin="round"/>
<path d="M3.71875 6.90625H5.84375" stroke="#FF5534" stroke-width="1.5" stroke-linecap="round" stroke-linejoin="round"/>
<path d="M16.4687 13.2813H14.3437V16.4688L11.1562 13.2813H7.96875V6.90625H16.4687V13.2813Z" stroke="#FF5534" stroke-width="1.5" stroke-linecap="round" stroke-linejoin="round"/>
<path d="M13.8125 10.625H10.625" stroke="#FF5534" stroke-width="1.5" stroke-linecap="round" stroke-linejoin="round"/>
</g>
<defs>
<clipPath id="clip0_9646_12024">
<rect width="17" height="17" fill="white"/>
</clipPath>
</defs>
</svg>
