<svg width="20" height="23" viewBox="0 0 20 23" fill="none" xmlns="http://www.w3.org/2000/svg">
<path opacity="0.4" d="M8.95028 23C8.43094 23 8 22.5632 8 22.0115L8 0.988505C8 0.448276 8.41989 -8.94984e-07 8.95028 -9.41352e-07C15.4586 -1.51032e-06 20 4.72414 20 11.4943C20 18.2644 15.4475 23 8.95028 23Z" fill="#FF5534"/>
<path d="M0.253348 12.1536L3.56143 15.7273C3.89923 16.0909 4.45834 16.0909 4.79614 15.7273C5.13394 15.3636 5.13394 14.7618 4.79614 14.3981L2.97902 12.442L14.1264 12.442C14.604 12.442 15 12.0157 15 11.5016C15 10.9875 14.604 10.5611 14.1264 10.5611L2.97902 10.5611L4.79614 8.60502C5.13394 8.24138 5.13394 7.6395 4.79614 7.27586C4.62142 7.08778 4.4001 7 4.17879 7C3.95747 7 3.73616 7.08778 3.56143 7.27586L0.253348 10.8495C-0.0844502 11.2006 -0.0844501 11.79 0.253348 12.1536Z" fill="#FF5534"/>
</svg>
