<svg width="17" height="17" viewBox="0 0 17 17" fill="none" xmlns="http://www.w3.org/2000/svg">
<path fill-rule="evenodd" clip-rule="evenodd" d="M4.52976 0.111644C4.30579 0.248012 4.25563 0.38128 4.25548 0.840426L4.25534 1.24725H2.87541C1.62753 1.24725 1.47341 1.25413 1.26477 1.31895C0.706267 1.49252 0.234357 1.97177 0.07078 2.53144C-0.0308008 2.87883 -0.0196434 15.4113 0.082471 15.739C0.256284 16.2967 0.736197 16.768 1.29664 16.9313C1.61074 17.0229 15.3893 17.0229 15.7034 16.9313C16.2638 16.768 16.7437 16.2967 16.9175 15.739C17.0196 15.4113 17.0308 2.87883 16.9292 2.53144C16.7656 1.97177 16.2937 1.49252 15.7352 1.31895C15.5266 1.25413 15.3725 1.24725 14.1246 1.24725H12.7447L12.7445 0.840426C12.7443 0.246704 12.5858 0.0364597 12.1383 0.0364597C11.6908 0.0364597 11.5322 0.246704 11.532 0.840426L11.5319 1.24725H8.5H5.4681L5.46795 0.840426C5.46771 0.148558 5.02893 -0.19229 4.52976 0.111644ZM15.262 2.49457C15.7093 2.59819 15.755 2.72516 15.7699 3.90597L15.7822 4.88051H8.5H1.21776L1.23008 3.90597C1.24483 2.73718 1.29363 2.59698 1.72077 2.49627C1.90161 2.45364 15.0781 2.45199 15.262 2.49457ZM15.7678 10.6994C15.7564 15.8355 15.7774 15.4367 15.5084 15.6369C15.3224 15.7753 15.1674 15.7785 8.5 15.7785C1.83263 15.7785 1.67764 15.7753 1.49165 15.6369C1.22261 15.4367 1.24357 15.8355 1.23217 10.6994L1.22198 6.09159H8.5H15.778L15.7678 10.6994ZM11.3272 7.91626C11.2457 7.94586 8.06011 10.6272 7.40953 11.2137L7.32343 11.2914L6.55682 10.53C5.73093 9.70978 5.6994 9.689 5.35376 9.73526C4.97907 9.78545 4.73084 10.2663 4.90363 10.6072C4.96335 10.7251 6.86855 12.633 6.99167 12.6983C7.13943 12.7766 7.471 12.7676 7.6094 12.6815C7.91239 12.4929 12.0519 8.89632 12.1123 8.7692C12.349 8.27116 11.8482 7.72714 11.3272 7.91626Z" fill="#FF5534"/>
</svg>
