<svg width="19" height="14" viewBox="0 0 19 14" fill="none" xmlns="http://www.w3.org/2000/svg">
<path d="M1 5.85714C1 3.56749 1 2.42266 1.71132 1.71132C2.42262 1 3.56746 1 5.85714 1H9.5H13.1429C15.4325 1 16.5773 1 17.2887 1.71132C18 2.42266 18 3.56749 18 5.85714V7.07143V8.28571C18 10.5754 18 11.7202 17.2887 12.4315C16.5773 13.1429 15.4325 13.1429 13.1429 13.1429H9.5H5.85714C3.56746 13.1429 2.42262 13.1429 1.71132 12.4315C1 11.7202 1 10.5754 1 8.28571V7.07143V5.85714Z" stroke="#FF5534" stroke-width="1.5" stroke-linejoin="round"/>
<path d="M11.9294 7.07139C11.9294 8.41269 10.8421 9.49997 9.50084 9.49997C8.15954 9.49997 7.07227 8.41269 7.07227 7.07139C7.07227 5.73009 8.15954 4.64282 9.50084 4.64282C10.8421 4.64282 11.9294 5.73009 11.9294 7.07139Z" stroke="#FF5534" stroke-width="1.5"/>
</svg>
