<svg width="19" height="19" viewBox="0 0 19 19" fill="none" xmlns="http://www.w3.org/2000/svg">
<path d="M15.9093 14.9193C14.7205 16.2869 13.1255 17.2386 11.3574 17.6355C9.58927 18.0323 7.74059 17.8535 6.0813 17.1252C4.42201 16.3967 3.03908 15.1568 2.13446 13.5865C1.22984 12.0163 0.850917 10.198 1.05302 8.39716C1.25496 6.59613 2.02745 4.90685 3.25765 3.57604C4.48786 2.24523 6.11134 1.3426 7.89097 1M11.1096 1.00689C12.3047 1.23705 13.4363 1.72124 14.4281 2.42669C15.4198 3.13215 16.2484 4.04241 16.8578 5.09588C17.4673 6.14936 17.8433 7.32148 17.9605 8.5329C18.0777 9.74433 17.9333 10.9668 17.537 12.1176" stroke="#FF5534" stroke-width="1.5" stroke-linecap="round"/>
<path d="M7.66503 8.89086V7.24883C7.66503 6.25316 8.48754 5.44604 9.50227 5.44604C10.517 5.44604 11.3395 6.25316 11.3395 7.24883V8.89086M7.20573 8.89086H11.7988C12.3077 8.89086 12.7174 9.30056 12.7174 9.80947V12.3357C12.7174 12.8446 12.3077 13.2543 11.7988 13.2543H7.20573C6.69681 13.2543 6.28711 12.8446 6.28711 12.3357V9.80947C6.28711 9.30056 6.69681 8.89086 7.20573 8.89086Z" stroke="#FF5534" stroke-width="1.5"/>
</svg>
