<svg width="17" height="20" viewBox="0 0 17 20" fill="none" xmlns="http://www.w3.org/2000/svg">
<path d="M8.5 0L0 2.83333V11.3333C0 16.0283 3.80508 19.8333 8.5 19.8333C13.1949 19.8333 17 16.0283 17 11.3333V2.83333L8.5 0ZM15.4062 11.3333C15.4062 15.1473 12.3139 18.2396 8.5 18.2396C4.68607 18.2396 1.59375 15.1473 1.59375 11.3333V4.02865L8.5 1.59375L15.4062 4.02865V11.3333Z" fill="#FF5534"/>
<path d="M5.54243 9.09991C5.46857 9.02572 5.38079 8.96684 5.28411 8.92667C5.18743 8.88649 5.08378 8.86581 4.97909 8.86581C4.87439 8.86581 4.77074 8.88649 4.67406 8.92667C4.57738 8.96684 4.4896 9.02572 4.41574 9.09991C4.34154 9.17377 4.28267 9.26156 4.24249 9.35823C4.20232 9.45491 4.18164 9.55857 4.18164 9.66326C4.18164 9.76795 4.20232 9.87161 4.24249 9.96828C4.28267 10.065 4.34154 10.1527 4.41574 10.2266L7.28006 13.0909L7.32655 13.1374C7.39641 13.2074 7.47939 13.2629 7.57074 13.3008C7.66209 13.3387 7.76001 13.3582 7.8589 13.3582C7.9578 13.3582 8.05572 13.3387 8.14707 13.3008C8.23842 13.2629 8.3214 13.2074 8.39126 13.1374L13.3385 8.19015C13.4085 8.12028 13.464 8.0373 13.5019 7.94595C13.5398 7.85461 13.5593 7.75668 13.5593 7.65779C13.5593 7.5589 13.5398 7.46097 13.5019 7.36962C13.464 7.27827 13.4085 7.19529 13.3385 7.12543L13.2765 7.06345C13.2067 6.99346 13.1237 6.93793 13.0324 6.90004C12.941 6.86215 12.8431 6.84265 12.7442 6.84265C12.6453 6.84265 12.5474 6.86215 12.456 6.90004C12.3647 6.93793 12.2817 6.99346 12.2118 7.06345L7.8578 11.4153L5.54243 9.09991Z" fill="#FF5534"/>
</svg>
