<svg width="18" height="17" viewBox="0 0 18 17" fill="none" xmlns="http://www.w3.org/2000/svg">
<path d="M0.8125 13.0732C0.784775 11.8935 1.0066 10.781 1.47656 9.73047C1.95477 8.66158 2.57844 7.7392 3.34473 6.95898C4.10647 6.1835 5.02386 5.56385 6.10254 5.10156C7.1747 4.64211 8.29369 4.41211 9.46387 4.41211H9.96387V1.06738L16.5293 6.54199L9.96387 12.0166V8.68457L9.43262 8.71777C7.94461 8.81077 6.57257 9.21483 5.32422 9.93262C4.08365 10.6459 3.04325 11.5862 2.20605 12.749C1.70581 13.4438 1.31026 14.1861 1.01953 14.9746C0.882768 14.359 0.813477 13.7293 0.813477 13.085L0.8125 13.0732Z" stroke="#FF5534"/>
</svg>
