<svg width="12" height="12" viewBox="0 0 12 12" fill="none" xmlns="http://www.w3.org/2000/svg">
<path fill-rule="evenodd" clip-rule="evenodd" d="M3.72553 3.8618L7.27872 5.65628C7.26422 5.79965 7.26422 5.9441 7.27872 6.08747L3.72553 7.88194C3.35722 7.53515 2.87708 7.32858 2.36998 7.29876C1.86289 7.26893 1.36147 7.41776 0.954372 7.71894C0.547271 8.02013 0.26069 8.45427 0.14528 8.94464C0.029871 9.43501 0.0930653 9.95004 0.323693 10.3987C0.554321 10.8474 0.937534 11.2007 1.4056 11.3964C1.87367 11.5921 2.39645 11.6174 2.88155 11.468C3.36665 11.3186 3.78284 11.0039 4.05655 10.5797C4.33026 10.1555 4.44387 9.64908 4.37731 9.14989L7.89174 7.37462C8.19219 7.67492 8.57586 7.87998 8.99408 7.96378C9.41229 8.04758 9.84619 8.00635 10.2407 7.84531C10.6353 7.68427 10.9726 7.41068 11.2101 7.05927C11.4475 6.70786 11.5742 6.29445 11.5742 5.87152C11.5742 5.44858 11.4475 5.03518 11.2101 4.68376C10.9726 4.33235 10.6353 4.05877 10.2407 3.89773C9.84619 3.73669 9.41229 3.69545 8.99408 3.77925C8.57586 3.86305 8.19219 4.06811 7.89174 4.36841L4.37731 2.59386C4.44387 2.09466 4.33026 1.58821 4.05655 1.16401C3.78284 0.739818 3.36665 0.425193 2.88155 0.275746C2.39645 0.126299 1.87367 0.151653 1.4056 0.347327C0.937534 0.543 0.554321 0.896394 0.323693 1.34505C0.0930653 1.7937 0.029871 2.30873 0.14528 2.7991C0.26069 3.28948 0.547271 3.72362 0.954372 4.0248C1.36147 4.32599 1.86289 4.47482 2.36998 4.44499C2.87708 4.41516 3.35722 4.2086 3.72553 3.8618ZM10.1385 5.16034V6.5834H8.70287V5.16034H10.1385ZM2.96033 8.71799V10.141H1.5247V8.71799H2.96033ZM2.96033 1.6027V3.02576H1.5247V1.6027H2.96033Z" fill="#FF5534"/>
</svg>
