<svg width="41" height="38" viewBox="0 0 41 38" fill="none" xmlns="http://www.w3.org/2000/svg">
<path opacity="0.4" d="M12.2007 0H28.4688C36.6029 0 40.6699 3.8 40.6699 11.4V36.1C40.6699 37.145 39.7548 38 38.6364 38H12.2007C4.06668 38 -0.000350952 34.2 -0.000350952 26.6V11.4C-0.000350952 3.8 4.06668 0 12.2007 0Z" fill="#FF5534"/>
<path d="M20.6847 11.2263C20.8873 10.816 21.3267 10.5457 21.8202 10.5457C22.8392 10.5457 23.6432 10.8205 24.0682 11.5362C24.2531 11.8478 24.3252 12.1822 24.3581 12.4749C24.3899 12.7586 24.3899 13.0605 24.3899 13.3266L24.3898 15.9107H26.9605C28.4679 15.9107 29.6055 17.1736 29.3793 18.5587L28.2531 25.4567C28.0706 26.5741 27.0476 27.4073 25.8343 27.4073H17.1035V17.4436H17.413L20.6847 11.2263Z" fill="#FF5534"/>
<path d="M15.4628 17.4436H13.8085C12.4504 17.4436 11.3613 18.4791 11.3613 19.7429V25.108C11.3613 26.3718 12.4504 27.4073 13.8085 27.4073H15.4628V17.4436Z" fill="#FF5534"/>
</svg>
