<svg width="38" height="38" viewBox="0 0 38 38" fill="none" xmlns="http://www.w3.org/2000/svg">
<path opacity="0.4" d="M11.4 0H26.6C34.2 0 38 3.8 38 11.4V36.1C38 37.145 37.145 38 36.1 38H11.4C3.8 38 0 34.2 0 26.6V11.4C0 3.8 3.8 0 11.4 0Z" fill="#FF5534"/>
<path d="M27.2719 17.8814C27.5934 17.8814 27.86 17.6148 27.86 17.2933V16.5091C27.86 13.0508 26.8092 12 23.3509 12H18.4498V13.7644C18.4498 14.0859 18.1831 14.3526 17.8616 14.3526C17.5401 14.3526 17.2735 14.0859 17.2735 13.7644V12H15.5091C12.0508 12 11 13.0508 11 16.5091V16.9012C11 17.2227 11.2666 17.4893 11.5881 17.4893C12.341 17.4893 12.9605 18.1088 12.9605 18.8616C12.9605 19.6144 12.341 20.234 11.5881 20.234C11.2666 20.234 11 20.5006 11 20.8221V21.2142C11 24.6724 12.0508 25.7233 15.5091 25.7233H17.2735V23.9588C17.2735 23.6373 17.5401 23.3707 17.8616 23.3707C18.1831 23.3707 18.4498 23.6373 18.4498 23.9588V25.7233H23.3509C26.8092 25.7233 27.86 24.6724 27.86 21.2142C27.86 20.8927 27.5934 20.626 27.2719 20.626C26.519 20.626 25.8995 20.0065 25.8995 19.2537C25.8995 18.5009 26.519 17.8814 27.2719 17.8814ZM18.4498 20.5633C18.4498 20.8848 18.1831 21.1515 17.8616 21.1515C17.5401 21.1515 17.2735 20.8848 17.2735 20.5633V17.1599C17.2735 16.8384 17.5401 16.5718 17.8616 16.5718C18.1831 16.5718 18.4498 16.8384 18.4498 17.1599V20.5633Z" fill="#FF5534"/>
</svg>
