<svg width="19" height="19" viewBox="0 0 19 19" fill="none" xmlns="http://www.w3.org/2000/svg">
<path d="M8.33533 1.54851C8.93956 0.817163 10.0605 0.817163 10.6647 1.54851L11.5711 2.64568C11.8908 3.03259 12.3817 3.23549 12.8813 3.18717L14.3 3.04992C15.2466 2.95835 16.0414 3.75372 15.9491 4.70027L15.8127 6.09889C15.7638 6.60084 15.9686 7.09413 16.3586 7.41386L17.447 8.30611C18.1843 8.91049 18.1843 10.0384 17.447 10.6428L16.3586 11.5351C15.9686 11.8548 15.7638 12.3481 15.8127 12.85L15.9491 14.2487C16.0414 15.1952 15.2466 15.9906 14.3 15.8989L12.8813 15.7618C12.3817 15.7134 11.8908 15.9163 11.5711 16.3032L10.6647 17.4004C10.0605 18.1318 8.93956 18.1318 8.33533 17.4004L7.42887 16.3032C7.10921 15.9163 6.61827 15.7134 6.11873 15.7618L4.70003 15.8989C3.75341 15.9906 2.95865 15.1952 3.05093 14.2487L3.18729 12.85C3.23623 12.3481 3.03146 11.8548 2.64143 11.5351L1.553 10.6428C0.815667 10.0384 0.815667 8.91049 1.553 8.30611L2.64143 7.41386C3.03146 7.09413 3.23623 6.60084 3.18729 6.09889L3.05093 4.70027C2.95865 3.75372 3.75341 2.95835 4.70003 3.04992L6.11873 3.18717C6.61827 3.23549 7.10921 3.03259 7.42887 2.64568L8.33533 1.54851Z" stroke="#FF5534" stroke-width="1.5"/>
<path d="M6.57227 10.0581L8.30065 11.7796C8.62554 12.1032 9.16141 12.0652 9.4372 11.6988L12.4299 7.72412" stroke="#FF5534" stroke-width="1.5" stroke-linecap="round"/>
</svg>
