<svg width="19" height="19" viewBox="0 0 19 19" fill="none" xmlns="http://www.w3.org/2000/svg">
<path d="M16.1111 4.15697C14.5528 2.23124 12.1702 1 9.5 1C4.80558 1 1 4.80558 1 9.5C1 11.2473 1.52726 12.8716 2.43135 14.2222M18 9.5C18 14.1945 14.1945 18 9.5 18C8.51872 18 7.57624 17.8337 6.69927 17.5278M9.5 13.2778H10.4444C11.0741 13.2778 12.3333 12.9 12.3333 11.3889C12.3333 9.87778 11.0741 9.5 10.4444 9.5H8.55556C7.92589 9.5 6.66667 9.12222 6.66667 7.61111C6.66667 6.1 7.92589 5.72222 8.55556 5.72222H9.5M9.5 13.2778H6.66667M9.5 13.2778V15.1667M9.5 5.72222H12.3333M9.5 5.72222V3.83333" stroke="#FF5534" stroke-width="1.5" stroke-linecap="round" stroke-linejoin="round"/>
</svg>
