<svg width="17" height="18" viewBox="0 0 17 18" fill="none" xmlns="http://www.w3.org/2000/svg">
<path d="M15.6505 10.6178V7.69348H15.3269C13.9567 7.69376 12.7367 7.93083 11.7306 8.23601C11.5334 7.83713 11.3056 7.42532 11.1104 7.08648C11.9755 6.34827 12.5247 5.2508 12.5247 4.02469C12.5247 1.80178 10.7227 0 8.50005 0C6.27738 0 4.47536 1.80178 4.47536 4.02469C4.47536 5.25083 5.02462 6.3483 5.88966 7.08648C5.6945 7.42532 5.46672 7.83713 5.26948 8.23601C4.26339 7.93083 3.04345 7.69373 1.67342 7.69348H1.34986V10.6178C0.37323 10.637 0 11.4422 0 12.4333C0 13.4245 0.37323 14.2297 1.34986 14.2486V16.5763L1.66201 16.5872L1.67109 16.5875C1.76815 16.5914 2.6583 16.6294 3.86399 16.7909C5.0694 16.9519 6.59109 17.2379 7.94248 17.7287L7.99607 17.7481H9.00397L9.05756 17.7287C10.4527 17.2219 12.029 16.9338 13.252 16.7756C13.8634 16.6964 14.3868 16.6491 14.7564 16.6218C14.9412 16.6082 15.0872 16.5993 15.1871 16.5942C15.2368 16.5916 15.2751 16.5897 15.3005 16.5887C15.3134 16.5882 15.3227 16.5877 15.3289 16.5875L15.3383 16.5872L15.6504 16.5763V14.2485C16.6268 14.2296 17 13.4244 17 12.4333C17 11.4422 16.6268 10.637 15.6505 10.6178ZM7.62464 16.9379C6.31104 16.5201 4.93144 16.2771 3.83137 16.1342C3.02016 16.0289 2.36167 15.9789 1.99669 15.9569V14.1435C2.69868 13.8924 3.2011 13.2218 3.2011 12.4334C3.2011 11.6449 2.69868 10.9743 1.99669 10.723V8.34528C3.682 8.39367 5.11856 8.813 6.14978 9.23282C6.69775 9.45592 7.13102 9.67881 7.42532 9.84499C7.50144 9.8877 7.56769 9.92652 7.62464 9.96094V16.9379ZM8.9442 17.0831C8.92687 17.0891 8.90954 17.095 8.89221 17.1012H8.10793C8.09056 17.095 8.07323 17.0891 8.0559 17.0831V10.1729H8.9442V17.0831ZM15.0034 10.7229C14.3014 10.9742 13.7992 11.6449 13.7992 12.4333C13.7992 13.2217 14.3014 13.8924 15.0034 14.1435V15.9569C14.6384 15.9789 13.9799 16.0288 13.1687 16.1342C12.0687 16.2771 10.6893 16.5201 9.37546 16.9379V9.96091C9.6568 9.79188 10.1727 9.50691 10.8762 9.22242C11.9054 8.80596 13.3323 8.39311 15.0034 8.34521L15.0034 10.7229Z" fill="#FF5534"/>
<path d="M11.5 4.04148C11.5 5.69833 10.1569 7.04148 8.5 7.04148C6.84315 7.04148 5.5 5.69833 5.5 4.04148C5.5 2.38462 6.84315 1.04148 8.5 1.04148C10.1569 1.04148 11.5 2.38462 11.5 4.04148Z" fill="white"/>
</svg>
