<svg width="14" height="14" viewBox="0 0 14 14" fill="none" xmlns="http://www.w3.org/2000/svg">
<path fill-rule="evenodd" clip-rule="evenodd" d="M5.8332 1.03819C0.479316 1.69963 -1.77157 8.27672 2.04858 12.0969C5.51984 15.5682 11.455 14.0888 12.8766 9.39803C14.2415 4.89402 10.5065 0.460826 5.8332 1.03819ZM7.37263 1.80051C11.56 2.34943 13.7725 7.13922 11.4545 10.6371C8.306 15.3883 0.922161 13.1888 0.922161 7.49974C0.922161 4.02546 3.9484 1.35162 7.37263 1.80051ZM3.91622 4.54182C3.72668 4.60887 3.62593 4.8014 3.67748 4.99796C3.70055 5.086 3.87183 5.26816 4.90169 6.30004L6.09909 7.49974L4.90169 8.69945C3.87183 9.73132 3.70055 9.91348 3.67748 10.0015C3.6026 10.2871 3.85837 10.5428 4.14392 10.468C4.23196 10.4449 4.41412 10.2736 5.446 9.24376L6.6457 8.04636L7.84541 9.24376C9.21636 10.612 9.16904 10.5776 9.46189 10.4208C9.60314 10.3452 9.66814 10.0522 9.5749 9.91114C9.55208 9.87663 9.0066 9.32 8.36274 8.67419L7.19206 7.5L8.38959 6.30017C9.41958 5.26816 9.59085 5.086 9.61393 4.99796C9.68887 4.71212 9.43105 4.45524 9.14586 4.53168C9.06032 4.55462 8.86393 4.73952 7.84541 5.75592L6.6457 6.95312L5.446 5.75592C4.10771 4.4204 4.15448 4.45751 3.91622 4.54182Z" fill="#FF5534"/>
</svg>
