<svg width="14" height="13" viewBox="0 0 14 13" fill="none" xmlns="http://www.w3.org/2000/svg">
<path d="M6.23235 12.9618C6.15588 12.9618 6.00294 12.8853 5.92647 12.8853C5.31471 12.2735 4.24412 12.2735 3.70882 12.8853C3.55588 13.0382 3.32647 13.0382 3.17353 12.8853L0.114706 9.82647C-0.0382353 9.67353 -0.0382353 9.44412 0.114706 9.29118C0.726471 8.67941 0.726471 7.68529 0.114706 7.07353C-0.0382353 6.92059 -0.0382353 6.69118 0.114706 6.53824L6.53823 0.114706C6.61471 0.0382353 6.69118 0.0382357 6.84412 0.0382357C6.92059 0.0382357 7.07353 0.114706 7.15 0.114706C7.76176 0.726471 8.75588 0.726471 9.36765 0.114706C9.52059 -0.0382353 9.75 -0.0382353 9.90294 0.114706L12.9618 3.17353C13.1147 3.32647 13.1147 3.55588 12.9618 3.70882C12.35 4.32059 12.35 5.31471 12.9618 5.92647C13.1147 6.07941 13.1147 6.30882 12.9618 6.46176L6.53823 12.8853C6.46176 12.8853 6.30882 12.9618 6.23235 12.9618ZM0.955882 9.52059L3.47941 12.0441C4.24412 11.5088 5.39118 11.5088 6.23235 12.0441L12.1206 6.15588C11.5088 5.31471 11.5088 4.24412 12.1206 3.40294L9.59706 0.879412C8.83235 1.41471 7.68529 1.41471 6.84412 0.879412L0.955882 6.76765C1.49118 7.60882 1.49118 8.67941 0.955882 9.52059Z" fill="#FF5534"/>
</svg>
