<svg width="14" height="15" viewBox="0 0 14 15" fill="none" xmlns="http://www.w3.org/2000/svg">
<path fill-rule="evenodd" clip-rule="evenodd" d="M10.8998 1.05349C10.3236 1.19321 9.8082 1.6679 9.63142 2.22181L9.57301 2.40476L8.21598 2.4146C6.7206 2.4254 6.74628 2.42284 6.44037 2.59226C6.27423 2.68427 0.456045 8.48057 0.337992 8.6717C0.0973395 9.06129 0.0823068 9.57448 0.299615 9.98201C0.449032 10.2623 4.01171 13.7842 4.25895 13.8961C4.62136 14.0601 5.12951 14.027 5.4638 13.8176C5.6052 13.729 7.64064 11.7156 7.69772 11.6079C7.80711 11.4014 7.61951 11.1732 7.39246 11.2366C7.34139 11.2508 6.98356 11.5905 6.27637 12.2959C5.07961 13.4898 5.09373 13.4791 4.74155 13.4587C4.58834 13.4499 4.52009 13.4327 4.43353 13.3812C4.29077 13.2963 0.803712 9.80377 0.744101 9.68593C0.664781 9.5292 0.664002 9.23694 0.74238 9.06107C0.836147 8.85066 6.56829 3.1313 6.7955 3.02144L6.93499 2.954L8.22952 2.94657L9.52401 2.93917L9.56599 3.16149C9.65505 3.63293 10.009 4.15838 10.2376 4.15838C10.515 4.15838 10.5973 3.88313 10.3889 3.6525C10.2336 3.48072 10.124 3.25931 10.0823 3.03306L10.0641 2.93466L10.3386 2.94654C10.6741 2.96108 10.8259 3.01843 10.9883 3.19196C11.2066 3.42522 11.1964 3.31711 11.1964 5.4008V7.23909L11.1353 7.36587C11.0882 7.46365 10.8202 7.7478 9.9635 8.60828C9.35265 9.22191 8.84147 9.75434 8.82754 9.7915C8.7465 10.0081 8.99228 10.2157 9.20014 10.1063C9.23781 10.0864 9.77229 9.56438 10.3879 8.94621C11.8747 7.4533 11.7413 7.75948 11.7416 5.8382C11.7418 4.69415 11.7459 4.56407 11.7818 4.56407C12.0407 4.56407 12.6155 4.16033 12.8417 3.81965C13.7483 2.45432 12.4937 0.667143 10.8998 1.05349ZM11.7943 1.62058C12.7902 2.01884 12.883 3.4282 11.9462 3.92733C11.7415 4.03642 11.7418 4.03661 11.7413 3.80975C11.7395 2.98448 11.2515 2.46847 10.4254 2.41833C10.1087 2.39908 10.1153 2.406 10.2227 2.20448C10.5073 1.67072 11.2395 1.39872 11.7943 1.62058ZM7.92425 4.35831C7.78094 4.44795 7.17626 5.08387 7.17204 5.14937C7.16116 5.31836 7.16801 5.32677 7.99279 6.15272C9.01689 7.17831 8.90219 7.14523 9.46317 6.57642C9.87541 6.15843 9.91707 6.05938 9.7507 5.89305C9.61132 5.75372 9.48758 5.79636 9.19436 6.08479L8.93722 6.33775L8.75527 6.15587L8.57332 5.97399L8.8005 5.73924C9.06888 5.46191 9.10196 5.34442 8.95352 5.19601C8.80202 5.04457 8.64472 5.10202 8.33082 5.42339L8.17932 5.57849L7.9951 5.39561L7.81091 5.21272L8.06416 4.95545C8.30409 4.71174 8.31744 4.69259 8.31744 4.59143C8.31744 4.35824 8.11565 4.23858 7.92425 4.35831ZM6.45307 5.82895C6.30975 5.91859 5.70504 6.55448 5.70082 6.61998C5.68994 6.78901 5.69682 6.79738 6.52161 7.62336C7.54571 8.64892 7.43097 8.61588 7.99195 8.04707C8.40419 7.62904 8.44588 7.52999 8.27948 7.36369C8.1401 7.22436 8.0164 7.26701 7.72318 7.55544L7.46603 7.80836L7.28405 7.62648L7.1021 7.4446L7.32928 7.20985C7.59769 6.93256 7.63077 6.81504 7.4823 6.66665C7.3308 6.51518 7.1735 6.57263 6.8596 6.89403L6.7081 7.04913L6.52391 6.86622L6.33972 6.68333L6.59297 6.42609C6.83287 6.18239 6.84622 6.16321 6.84622 6.06207C6.84622 5.82885 6.64443 5.70922 6.45307 5.82895ZM4.91844 7.50367C4.75694 7.55297 4.60752 7.65757 4.37716 7.88268C3.90628 8.34283 3.86927 8.24329 4.89071 9.26433L5.72543 10.0987L5.84744 10.085C6.18287 10.0472 6.18014 9.80072 5.84049 9.45514C5.60156 9.21205 5.5978 9.20637 5.68195 9.21714C5.96601 9.25349 6.68817 9.2814 6.74852 9.25836C6.98151 9.16943 6.92249 8.74836 6.67696 8.74752C6.56592 8.74713 5.87244 8.69562 5.86397 8.68715C5.85981 8.68299 5.87478 8.62931 5.89721 8.56788C6.12173 7.9533 5.5351 7.31549 4.91844 7.50367ZM5.32529 8.07673C5.46825 8.20607 5.42714 8.41368 5.21876 8.61445L5.10714 8.72204L4.90581 8.51962L4.70447 8.31716L4.81561 8.20399C5.00487 8.01124 5.19925 7.96272 5.32529 8.07673ZM3.33309 8.94767C3.18199 9.04214 2.61711 9.64322 2.5987 9.72909C2.56828 9.87099 2.64058 9.95913 3.4415 10.7566C4.29018 11.6016 4.30963 11.616 4.48372 11.526C4.73438 11.3964 4.69113 11.2306 4.30385 10.8357L3.99755 10.5234L4.20018 10.3124C4.47872 10.0224 4.50275 9.81886 4.26989 9.72159C4.12408 9.66068 4.04742 9.69401 3.81044 9.92145L3.59722 10.1261L3.42118 9.95144L3.24514 9.77683L3.48569 9.53209C3.71203 9.30179 3.72625 9.28105 3.72625 9.18144C3.72625 8.95477 3.51891 8.83148 3.33309 8.94767ZM8.08718 10.4953C7.94221 10.6403 8.01383 10.8984 8.20942 10.9357C8.47397 10.9863 8.6404 10.6749 8.45036 10.485C8.35559 10.3902 8.18753 10.395 8.08718 10.4953Z" fill="#FF5534" stroke="#FF5534" stroke-width="0.2"/>
</svg>
