<svg width="11" height="15" viewBox="0 0 11 15" fill="none" xmlns="http://www.w3.org/2000/svg">
<path d="M1.64871 2.68122L2.04524 10.0815C2.05151 10.1987 1.9614 10.2988 1.84397 10.3051C1.84007 10.3053 1.83624 10.3054 1.83241 10.3054C1.71999 10.3054 1.62602 10.2176 1.61993 10.1042L1.2234 2.70393C1.21713 2.58673 1.30724 2.48661 1.42468 2.48033C1.54135 2.47389 1.64241 2.56398 1.64871 2.68122ZM2.53086 13.0529C2.53086 13.1703 2.43551 13.2655 2.31789 13.2655H0.938731C0.821116 13.2655 0.72577 13.1703 0.72577 13.0529V12.0296L0.146791 1.22391C0.143657 1.16564 0.164679 1.10867 0.204898 1.06635C0.245087 1.02399 0.300974 1 0.359447 1H5.22527C5.28374 1 5.33963 1.02399 5.37981 1.06635C5.42003 1.1087 5.44106 1.16567 5.43792 1.22391L5.18751 5.89727C5.18121 6.01448 5.082 6.10487 4.96348 6.09816C4.84604 6.09188 4.75593 5.99177 4.7622 5.87456L5.00062 1.4251H0.584121L1.14062 11.8114H2.28279C2.4004 11.8114 2.49575 11.9066 2.49575 12.0239C2.49575 12.1413 2.4004 12.2365 2.28279 12.2365H1.15169V12.8404H2.31789C2.43551 12.8404 2.53086 12.9355 2.53086 13.0529ZM5.17997 10.5672C5.17997 10.6846 5.08462 10.7797 4.96701 10.7797H4.90537C4.78775 10.7797 4.69241 10.6846 4.69241 10.5672C4.69241 10.4498 4.78775 10.3546 4.90537 10.3546H4.96701C5.08465 10.3546 5.17997 10.4498 5.17997 10.5672ZM4.34434 12.3117C4.34434 12.4291 4.24899 12.5243 4.13138 12.5243H4.06971C3.9521 12.5243 3.85675 12.4291 3.85675 12.3117C3.85675 12.1943 3.9521 12.0992 4.06971 12.0992H4.13138C4.24899 12.0992 4.34434 12.1943 4.34434 12.3117ZM7.07462 8.30709C7.07462 8.42448 6.97927 8.51964 6.86166 8.51964H4.9772C4.85958 8.51964 4.76424 8.42448 4.76424 8.30709C4.76424 8.1897 4.85958 8.09454 4.9772 8.09454H6.86166C6.97927 8.09454 7.07462 8.18967 7.07462 8.30709ZM9.80389 6.7244H7.47301C7.4564 6.7244 7.44027 6.72631 7.42476 6.7299C7.38104 6.72628 7.3368 6.7244 7.2922 6.7244H4.54674C3.67236 6.7244 2.96098 7.43441 2.96098 8.30709V12.4173C2.96098 13.29 3.67236 14 4.54674 14H7.2922C8.09433 14 8.75929 13.4024 8.86364 12.6299H9.80389C9.92151 12.6299 10.0169 12.5347 10.0169 12.4173V6.93695C10.0169 6.81956 9.92151 6.7244 9.80389 6.7244ZM8.45193 12.4174C8.45193 13.0557 7.93163 13.5749 7.29217 13.5749H4.54671C3.90719 13.5749 3.38687 13.0556 3.38687 12.4174V9.3853C3.67655 9.69547 4.08933 9.88971 4.54671 9.88971H7.29217C7.74952 9.88971 8.16227 9.69547 8.45193 9.3853V12.4174ZM7.29217 9.46461H4.54671C3.90719 9.46461 3.38687 8.94535 3.38687 8.30709C3.38687 7.66883 3.90719 7.14953 4.54671 7.14953H7.29217C7.93166 7.14953 8.45193 7.66883 8.45193 8.30712C8.45193 8.94535 7.93166 9.46461 7.29217 9.46461ZM9.59093 12.2048H8.87788V8.30709C8.87788 7.85062 8.68326 7.4386 8.37249 7.1495H9.59096L9.59093 12.2048ZM4.34434 11.1487C4.34434 11.2661 4.24899 11.3613 4.13138 11.3613H4.06971C3.9521 11.3613 3.85675 11.2661 3.85675 11.1487C3.85675 11.0313 3.9521 10.9362 4.06971 10.9362H4.13138C4.24899 10.9362 4.34434 11.0313 4.34434 11.1487ZM5.17997 11.7302C5.17997 11.8476 5.08462 11.9427 4.96701 11.9427H4.90537C4.78775 11.9427 4.69241 11.8476 4.69241 11.7302C4.69241 11.6128 4.78775 11.5176 4.90537 11.5176H4.96701C5.08465 11.5176 5.17997 11.6128 5.17997 11.7302ZM5.17997 12.8933C5.17997 13.0107 5.08462 13.1059 4.96701 13.1059H4.90537C4.78775 13.1059 4.69241 13.0107 4.69241 12.8933C4.69241 12.7759 4.78775 12.6808 4.90537 12.6808H4.96701C5.08465 12.6808 5.17997 12.7759 5.17997 12.8933Z" fill="#FF5534" stroke="#FF5534" stroke-width="0.2"/>
</svg>
