<svg width="15" height="15" viewBox="0 0 15 15" fill="none" xmlns="http://www.w3.org/2000/svg">
<path d="M12.702 3.41415C11.5104 1.94154 9.68842 1 7.64648 1C4.05664 1 1.14648 3.91015 1.14648 7.5C1.14648 8.83618 1.54968 10.0783 2.24105 11.1111M14.1465 7.5C14.1465 11.0899 11.2364 14 7.64648 14C6.8961 14 6.17538 13.8728 5.50475 13.6389M7.64648 10.3889H8.36871C8.85021 10.3889 9.81315 10.1 9.81315 8.94444C9.81315 7.78889 8.85021 7.5 8.36871 7.5H6.92426C6.44276 7.5 5.47982 7.21111 5.47982 6.05556C5.47982 4.9 6.44276 4.61111 6.92426 4.61111H7.64648M7.64648 10.3889H5.47982M7.64648 10.3889V11.8333M7.64648 4.61111H9.81315M7.64648 4.61111V3.16667" stroke="#FF5534" stroke-linecap="round" stroke-linejoin="round"/>
</svg>
